<?xml version="1.0" encoding="utf-8"?><!--Generator: Adobe Illustrator 22.0.0, SVG Export Plug-In . SVG Version: 6.00 Build 0)--><svg version="1.1" id="Layer_1" xmlns="http://www.w3.org/2000/svg" x="0px" y="0px" viewBox="0 0 80 80" xml:space="preserve"><style>.st1{fill:#ff4d4d}.st2{fill:#fff}.st3{fill:#00cfff}</style><path d="M32.1 30.1c-.1-.1-.1-.1-.1-.2-.2-.1-.4-.3-.5-.6-.1-.5-.2-1.3-.2-2.3-1.1-1.7-2.7-2.4-2.8-2.4-.4-.1-.8 0-1 .4-.1.4 0 .8.4 1 0 0 2.4 1 2.8 4 .3.1.6.2.8.2.3 0 .4 0 .6-.1z"/><path d="M36 25c.3-.3.8-.3 1.1 0 .3.3.3.8 0 1.1-.9.9-2.1 2.2-2.9 3.1 1.9.1 4.7 0 6.4-1.6 2.1-2.1 1.7-6.2 1.5-7.6-1.4-.2-5.5-.6-7.6 1.5-1.9 1.9-1.8 5.3-1.6 7 .6-.8 1.5-1.9 3.1-3.5z" fill="#9cff54"/><path d="M32 29.9c0 .1.1.1.1.2 1.3-.4 2.6-.6 3.9-.6 1.2 0 2.3.2 3.3.4.9-.3 1.7-.8 2.3-1.4 3.1-3.1 1.9-9.2 1.8-9.5-.1-.3-.3-.5-.6-.6-.3-.1-6.4-1.3-9.5 1.8-1.8 1.8-2.1 4.7-2.1 6.8 0 1 .1 1.8.2 2.3.1.3.3.5.6.6zm2.4-8.6c2.1-2.1 6.2-1.7 7.6-1.5.2 1.4.6 5.5-1.5 7.6-1.6 1.6-4.5 1.8-6.4 1.6.8-.9 2-2.2 2.9-3.1.3-.3.3-.8 0-1.1-.3-.3-.8-.3-1.1 0-1.6 1.6-2.5 2.7-3.1 3.4-.1-1.6-.2-5 1.6-6.9z"/><path class="st1" d="M36 31c-1.4 0-2.8.2-4.1.7-.2.1-.3.1-.5 0-1.3-.5-2.7-.7-4.1-.7-6.7 0-12.2 5.5-12.2 12.2 0 9.1 7.4 16.6 16.6 16.6 9.1 0 16.6-7.4 16.6-16.6C48.2 36.5 42.7 31 36 31zM19.1 41.1c-.2.7-.3 1.4-.3 2.2 0 .4-.3.8-.8.8-.4 0-.8-.3-.8-.8 0-.9.1-1.7.3-2.5.1-.4.5-.6.9-.5.6 0 .8.4.7.8zm8.2-6.3c-2.2 0-4.4.9-6 2.5-.1.1-.3.2-.5.2s-.4-.1-.5-.2c-.3-.3-.3-.8 0-1.1 1.9-1.9 4.4-2.9 7-2.9.4 0 .8.3.8.8s-.4.7-.8.7z"/><path d="M39.3 30c-1.1-.3-2.2-.4-3.3-.4-1.3 0-2.6.2-3.9.6-.2 0-.3.1-.5.1-.3-.1-.6-.2-.8-.2-1.1-.3-2.3-.5-3.5-.5-7.6 0-13.7 6.2-13.7 13.7 0 10 8.1 18.1 18.1 18.1 10 0 18.1-8.1 18.1-18.1-.1-6.5-4.5-11.8-10.5-13.3zm-7.7 29.8c-9.1 0-16.6-7.4-16.6-16.6C15 36.5 20.5 31 27.2 31c1.4 0 2.8.2 4.1.7.2.1.3.1.5 0 1.3-.5 2.7-.7 4.1-.7 6.7 0 12.2 5.5 12.2 12.2.1 9.2-7.4 16.6-16.5 16.6z"/><path class="st2" d="M18.6 40.2c-.4-.1-.8.1-.9.5-.2.8-.3 1.7-.3 2.5 0 .4.3.8.8.8.4 0 .8-.3.8-.8 0-.7.1-1.5.3-2.2-.1-.3-.3-.7-.7-.8zM27.3 33.3c-2.6 0-5.1 1-7 2.9-.3.3-.3.8 0 1.1.1.1.3.2.5.2s.4-.1.5-.2c1.6-1.6 3.7-2.5 6-2.5.4 0 .8-.3.8-.8s-.4-.7-.8-.7z"/><path class="st3" d="M60.6 26.1c-.2-.1-.3-.2-.4-.3v.8c2.5.8 4.3 3.1 4.3 5.8 0 .4-.3.8-.8.8H53.2c-.4 0-.8-.3-.8-.8 0-2.7 1.8-5 4.3-5.8v-.8c-.1.1-.2.3-.4.3-2.5.9-4.2 3.3-4.2 6V37h12.7v-4.9c0-2.7-1.7-5.1-4.2-6zM52.1 58.3v.2c0 .1 0 .3.1.4.2.6.7.9 1.3 1h10.1c.5-.1 1-.4 1.2-.9.1-.2.1-.3.1-.4v-.2-8.7H52.1v8.6c0-.1 0-.1 0 0z"/><path d="M60.2 23v2.8c.1.1.2.3.4.3 2.5.9 4.2 3.3 4.2 6V37h.8c.4 0 .7.3.7.6v-5.5c0-3.1-1.9-6-4.7-7.2v-2c-.1.1-.2.1-.4.1h-1zM51.3 37h.8v-4.9c0-2.7 1.7-5.1 4.2-6 .2-.1.3-.2.4-.3V23h-1c-.1 0-.2 0-.4-.1v2c-2.9 1.2-4.7 4.1-4.7 7.2v5.5c.1-.3.4-.6.7-.6zM65.6 49.6h-.8V58.5c0 .1 0 .3-.1.4-.2.5-.7.9-1.2.9H53.4c-.5-.1-1-.5-1.3-1-.1-.1-.1-.3-.1-.4v-.2-8.7h-.8c-.4 0-.7-.3-.7-.6v9.5c0 .4.1.7.2 1 .4 1 1.4 1.7 2.5 1.9H63.5c1.1-.1 2-.8 2.4-1.8.2-.3.3-.7.3-1.1v-.1-9.4c.1.4-.2.7-.6.7z"/><path class="st1" d="M60.5 21.5v-1.9h-4.1v1.9h3.1z"/><path d="M56.7 23v-.8c0-.4.3-.8.8-.8h-1v-1.8h4v1.8h-1c.4 0 .8.3.8.8v.8h1c.1 0 .2 0 .4-.1s.4-.4.4-.7v-2.7c0-.7-.6-1.4-1.4-1.4h-4.3c-.7 0-1.4.6-1.4 1.4v2.7c0 .3.2.5.4.7.1.1.2.1.4.1h.9z"/><path class="st2" d="M52.1 48.1h12.8v-9.5H52.1v9.5zm5.8-7.8c.3-.3.9-.3 1.1 0 .5.6 2.3 2.8 2.3 4.2 0 1.6-1.3 2.9-2.9 2.9-1.6 0-2.9-1.3-2.9-2.9.1-1.3 1.8-3.5 2.4-4.2z"/><path d="M66.3 37.6c0-.3-.3-.6-.7-.6H51.3c-.4 0-.7.3-.7.6v11.2c.1.4.4.6.7.6h14.3c.4 0 .7-.3.7-.6V37.7c.1 0 0 0 0-.1zm-1.4 10.5H52.1v-9.5h12.8v9.5z"/><path class="st3" d="M58.5 45.9c.8 0 1.4-.6 1.4-1.4 0-.4-.6-1.5-1.4-2.5-.7 1-1.4 2.1-1.4 2.5 0 .8.6 1.4 1.4 1.4z"/><path d="M58.5 47.4c1.6 0 2.9-1.3 2.9-2.9 0-1.3-1.8-3.5-2.3-4.2-.3-.3-.9-.3-1.1 0-.5.6-2.3 2.8-2.3 4.2-.1 1.6 1.2 2.9 2.8 2.9zm0-5.4c.7 1 1.4 2.1 1.4 2.5 0 .8-.6 1.4-1.4 1.4-.8 0-1.4-.6-1.4-1.4 0-.4.6-1.5 1.4-2.5z"/><path class="st2" d="M54 31.6h8.9c-.3-1.8-1.7-3.3-3.6-3.7-.4-.1-.6-.4-.6-.7V23h-.5v4.2c0 .4-.3.7-.6.7-1.9.4-3.3 1.9-3.6 3.7z"/><path d="M52.4 32.3c0 .4.3.8.8.8h10.5c.4 0 .8-.3.8-.8 0-2.7-1.8-5-4.3-5.8v-4.3c0-.4-.3-.8-.8-.8h-2c-.4 0-.8.3-.8.8V26.6c-2.4.7-4.2 3.1-4.2 5.7zm5.2-4.4c.4-.1.6-.4.6-.7V23h.5v4.2c0 .4.3.7.6.7 1.9.4 3.3 1.9 3.6 3.7H54c.3-1.8 1.7-3.3 3.6-3.7z"/></svg>